<mxfile host="app.diagrams.net" modified="2020-05-05T17:05:49.443Z" agent="5.0 (Windows NT 10.0; Win64; x64) AppleWebKit/537.36 (KHTML, like Gecko) Chrome/81.0.4044.122 Safari/537.36" etag="oKAflXyUnYpn9MEEmnLw" version="13.0.7" type="github">
  <diagram id="w8pvyFqfN6p4kL5zvgub" name="Page-1">
    <mxGraphModel dx="782" dy="431" grid="1" gridSize="10" guides="1" tooltips="1" connect="1" arrows="1" fold="1" page="1" pageScale="1" pageWidth="827" pageHeight="1169" math="0" shadow="0">
      <root>
        <mxCell id="0" />
        <mxCell id="1" parent="0" />
        <mxCell id="BlXENt5klZN1p-hfmHN1-1" value="" style="ellipse;html=1;shape=startState;fillColor=#000000;strokeColor=#ff0000;" parent="1" vertex="1">
          <mxGeometry x="399" y="40" width="30" height="30" as="geometry" />
        </mxCell>
        <mxCell id="BlXENt5klZN1p-hfmHN1-2" value="" style="edgeStyle=orthogonalEdgeStyle;html=1;verticalAlign=bottom;endArrow=open;endSize=8;strokeColor=#ff0000;" parent="1" source="BlXENt5klZN1p-hfmHN1-1" edge="1">
          <mxGeometry relative="1" as="geometry">
            <mxPoint x="414" y="140" as="targetPoint" />
          </mxGeometry>
        </mxCell>
        <mxCell id="BlXENt5klZN1p-hfmHN1-3" value="User enters Username/Password" style="rounded=1;whiteSpace=wrap;html=1;arcSize=40;fontColor=#000000;fillColor=#ffffc0;strokeColor=#ff0000;" parent="1" vertex="1">
          <mxGeometry x="354" y="140" width="120" height="40" as="geometry" />
        </mxCell>
        <mxCell id="BlXENt5klZN1p-hfmHN1-4" value="" style="edgeStyle=elbowEdgeStyle;html=1;verticalAlign=bottom;endArrow=open;endSize=8;strokeColor=#ff0000;" parent="1" source="BlXENt5klZN1p-hfmHN1-3" edge="1">
          <mxGeometry relative="1" as="geometry">
            <mxPoint x="414" y="230" as="targetPoint" />
          </mxGeometry>
        </mxCell>
        <mxCell id="M-G40H9NN-dhTDyFuboE-1" value="Correct &lt;br&gt;Input" style="rhombus;whiteSpace=wrap;html=1;fillColor=#ffffc0;strokeColor=#ff0000;" parent="1" vertex="1">
          <mxGeometry x="360" y="230" width="110" height="60" as="geometry" />
        </mxCell>
        <mxCell id="M-G40H9NN-dhTDyFuboE-2" value="no" style="edgeStyle=orthogonalEdgeStyle;html=1;align=left;verticalAlign=bottom;endArrow=open;endSize=8;strokeColor=#ff0000;exitX=1;exitY=0.5;exitDx=0;exitDy=0;entryX=0.5;entryY=1;entryDx=0;entryDy=0;" parent="1" source="M-G40H9NN-dhTDyFuboE-1" target="M-G40H9NN-dhTDyFuboE-11" edge="1">
          <mxGeometry x="-1" relative="1" as="geometry">
            <mxPoint x="560" y="240" as="targetPoint" />
            <Array as="points">
              <mxPoint x="580" y="260" />
            </Array>
          </mxGeometry>
        </mxCell>
        <mxCell id="M-G40H9NN-dhTDyFuboE-3" value="yes" style="edgeStyle=orthogonalEdgeStyle;html=1;align=left;verticalAlign=top;endArrow=open;endSize=8;strokeColor=#ff0000;" parent="1" source="M-G40H9NN-dhTDyFuboE-1" edge="1">
          <mxGeometry x="-1" relative="1" as="geometry">
            <mxPoint x="415" y="340" as="targetPoint" />
          </mxGeometry>
        </mxCell>
        <mxCell id="M-G40H9NN-dhTDyFuboE-5" value="Login in" style="rounded=1;whiteSpace=wrap;html=1;arcSize=40;fontColor=#000000;fillColor=#ffffc0;strokeColor=#ff0000;" parent="1" vertex="1">
          <mxGeometry x="355" y="340" width="120" height="40" as="geometry" />
        </mxCell>
        <mxCell id="M-G40H9NN-dhTDyFuboE-6" value="" style="edgeStyle=orthogonalEdgeStyle;html=1;verticalAlign=bottom;endArrow=open;endSize=8;strokeColor=#ff0000;" parent="1" source="M-G40H9NN-dhTDyFuboE-5" edge="1">
          <mxGeometry relative="1" as="geometry">
            <mxPoint x="415" y="440" as="targetPoint" />
          </mxGeometry>
        </mxCell>
        <mxCell id="M-G40H9NN-dhTDyFuboE-8" value="Go to User&amp;nbsp;&lt;br&gt;Dashboard" style="rounded=1;whiteSpace=wrap;html=1;arcSize=40;fontColor=#000000;fillColor=#ffffc0;strokeColor=#ff0000;" parent="1" vertex="1">
          <mxGeometry x="355" y="440" width="120" height="40" as="geometry" />
        </mxCell>
        <mxCell id="M-G40H9NN-dhTDyFuboE-9" value="" style="edgeStyle=orthogonalEdgeStyle;html=1;verticalAlign=bottom;endArrow=open;endSize=8;strokeColor=#ff0000;" parent="1" source="M-G40H9NN-dhTDyFuboE-8" edge="1">
          <mxGeometry relative="1" as="geometry">
            <mxPoint x="415" y="540" as="targetPoint" />
          </mxGeometry>
        </mxCell>
        <mxCell id="M-G40H9NN-dhTDyFuboE-10" value="" style="ellipse;html=1;shape=endState;fillColor=#000000;strokeColor=#ff0000;" parent="1" vertex="1">
          <mxGeometry x="400" y="540" width="30" height="30" as="geometry" />
        </mxCell>
        <mxCell id="M-G40H9NN-dhTDyFuboE-11" value="Shows Error" style="rounded=1;whiteSpace=wrap;html=1;arcSize=40;fontColor=#000000;fillColor=#ffffc0;strokeColor=#ff0000;" parent="1" vertex="1">
          <mxGeometry x="510" y="180" width="140" height="40" as="geometry" />
        </mxCell>
        <mxCell id="M-G40H9NN-dhTDyFuboE-12" value="" style="edgeStyle=orthogonalEdgeStyle;html=1;verticalAlign=bottom;endArrow=open;endSize=8;strokeColor=#ff0000;entryX=1;entryY=0.5;entryDx=0;entryDy=0;" parent="1" source="M-G40H9NN-dhTDyFuboE-11" target="BlXENt5klZN1p-hfmHN1-3" edge="1">
          <mxGeometry relative="1" as="geometry">
            <mxPoint x="460" y="150" as="targetPoint" />
            <Array as="points">
              <mxPoint x="580" y="160" />
            </Array>
          </mxGeometry>
        </mxCell>
      </root>
    </mxGraphModel>
  </diagram>
</mxfile>
